# xmcd CD database file
#
# Track frame offsets:
#	150
#	41263
#	80785
#	120467
#	137111
#	182688
#	212405
#	247178
#	282579
#	291008
#
# Disc length: 4323 seconds
#
# Revision: 0
# Processed by: cddbd v1.5.1PL0 Copyright (c) Steve Scherf et al.
# Submitted via: CDex 1.51
#
DISCID=9510e10a
DTITLE=KJ Denhert - Another Year gone by
DYEAR=2004
DGENRE=Jazz
TTITLE0=Moondance
TTITLE1=Love On The Side
TTITLE2=Little Mary
TTITLE3=Summertime
TTITLE4=Jellybean
TTITLE5=Aint No Sunshine
TTITLE6=Sunny
TTITLE7=Girl Like Me
TTITLE8=Hit the Road Jack
TTITLE9=Deed is Done
EXTD=YEAR: 2004
EXTT0=
EXTT1=
EXTT2=
EXTT3=
EXTT4=
EXTT5=
EXTT6=
EXTT7=
EXTT8=
EXTT9=
PLAYORDER=
